<mxfile host="Electron" modified="2023-04-03T08:24:39.299Z" agent="Mozilla/5.0 (Windows NT 10.0; Win64; x64) AppleWebKit/537.36 (KHTML, like Gecko) draw.io/21.1.2 Chrome/106.0.5249.199 Electron/21.4.3 Safari/537.36" etag="sE30kR_UBnq-5p_gwSLi" version="21.1.2" type="device">
  <diagram name="Страница 1" id="1Sl_nZ1g1N8PrJDqj42g">
    <mxGraphModel dx="-1431" dy="151" grid="1" gridSize="10" guides="1" tooltips="1" connect="1" arrows="1" fold="1" page="1" pageScale="1" pageWidth="827" pageHeight="1169" math="0" shadow="0">
      <root>
        <mxCell id="0" />
        <mxCell id="1" parent="0" />
        <mxCell id="bT7lZ-O7QSs4i1S0B8-C-22" style="edgeStyle=none;curved=1;rounded=1;orthogonalLoop=1;jettySize=auto;html=1;exitX=0.5;exitY=1;exitDx=0;exitDy=0;entryX=1;entryY=0.5;entryDx=0;entryDy=0;strokeWidth=1;fontFamily=Lucida Console;fontSize=12;fontColor=#F0F0F0;startSize=8;endSize=8;" parent="1" edge="1">
          <mxGeometry relative="1" as="geometry">
            <Array as="points">
              <mxPoint x="-140" y="1090" />
              <mxPoint x="-230" y="500" />
            </Array>
            <mxPoint x="-380" y="920" as="sourcePoint" />
          </mxGeometry>
        </mxCell>
        <mxCell id="Jn_Shfn6a7lbjGQ6scSM-2" value="" style="group" parent="1" vertex="1" connectable="0">
          <mxGeometry x="1721.5" y="24" width="180" height="60" as="geometry" />
        </mxCell>
        <mxCell id="Jn_Shfn6a7lbjGQ6scSM-3" value="" style="verticalLabelPosition=bottom;verticalAlign=top;html=1;shape=process;whiteSpace=wrap;rounded=1;size=0.14;arcSize=6;strokeWidth=1;fontFamily=Lucida Console;fontSize=16;fillColor=#f8cecc;strokeColor=#b85450;" parent="Jn_Shfn6a7lbjGQ6scSM-2" vertex="1">
          <mxGeometry width="180" height="60" as="geometry" />
        </mxCell>
        <mxCell id="Jn_Shfn6a7lbjGQ6scSM-4" value="remove_after_max" style="text;strokeColor=none;fillColor=none;html=1;align=center;verticalAlign=middle;whiteSpace=wrap;rounded=0;fontSize=16;fontFamily=Lucida Console;fontColor=#000000;" parent="Jn_Shfn6a7lbjGQ6scSM-2" vertex="1">
          <mxGeometry x="51.42857142857143" y="15" width="77.14285714285715" height="30" as="geometry" />
        </mxCell>
        <mxCell id="Jn_Shfn6a7lbjGQ6scSM-9" style="edgeStyle=none;curved=1;rounded=0;orthogonalLoop=1;jettySize=auto;html=1;exitX=0.5;exitY=1;exitDx=0;exitDy=0;fontSize=12;startSize=8;endSize=8;" parent="1" source="Jn_Shfn6a7lbjGQ6scSM-5" target="Jn_Shfn6a7lbjGQ6scSM-7" edge="1">
          <mxGeometry relative="1" as="geometry" />
        </mxCell>
        <mxCell id="Jn_Shfn6a7lbjGQ6scSM-5" value="&lt;div&gt;val_max = 0&lt;/div&gt;&lt;div&gt;ind_max = 0&lt;/div&gt;" style="rounded=1;whiteSpace=wrap;html=1;absoluteArcSize=1;arcSize=14;strokeWidth=1;fontFamily=Lucida Console;fontSize=16;fillColor=#f5f5f5;strokeColor=#666666;fontColor=#333333;" parent="1" vertex="1">
          <mxGeometry x="1746.5" y="324" width="130" height="45" as="geometry" />
        </mxCell>
        <mxCell id="Jn_Shfn6a7lbjGQ6scSM-18" value="YES" style="edgeStyle=none;rounded=0;orthogonalLoop=1;jettySize=auto;html=1;exitX=1;exitY=0.5;exitDx=0;exitDy=0;exitPerimeter=0;fontSize=12;startSize=8;endSize=8;fillColor=#dae8fc;strokeColor=#6c8ebf;fontColor=#110AF0;entryX=0.5;entryY=0;entryDx=0;entryDy=0;" parent="1" source="Jn_Shfn6a7lbjGQ6scSM-6" target="Jn_Shfn6a7lbjGQ6scSM-11" edge="1">
          <mxGeometry x="0.0318" relative="1" as="geometry">
            <Array as="points">
              <mxPoint x="1967" y="530" />
            </Array>
            <mxPoint as="offset" />
          </mxGeometry>
        </mxCell>
        <mxCell id="Jn_Shfn6a7lbjGQ6scSM-27" value="NO" style="edgeStyle=none;curved=1;rounded=0;orthogonalLoop=1;jettySize=auto;html=1;exitX=0.5;exitY=1;exitDx=0;exitDy=0;exitPerimeter=0;fontSize=12;startSize=8;endSize=8;fillColor=#f8cecc;strokeColor=#b85450;fontColor=#F02B2B;" parent="1" source="Jn_Shfn6a7lbjGQ6scSM-6" target="Jn_Shfn6a7lbjGQ6scSM-26" edge="1">
          <mxGeometry relative="1" as="geometry" />
        </mxCell>
        <mxCell id="Jn_Shfn6a7lbjGQ6scSM-6" value="ln &amp;gt; 0" style="strokeWidth=1;html=1;shape=mxgraph.flowchart.decision;whiteSpace=wrap;rounded=1;fontSize=16;fontFamily=Lucida Console;fillColor=#d5e8d4;strokeColor=#82b366;" parent="1" vertex="1">
          <mxGeometry x="1741.5" y="499.75" width="140" height="60" as="geometry" />
        </mxCell>
        <mxCell id="Jn_Shfn6a7lbjGQ6scSM-10" style="edgeStyle=none;curved=1;rounded=0;orthogonalLoop=1;jettySize=auto;html=1;exitX=0.5;exitY=1;exitDx=0;exitDy=0;fontSize=12;startSize=8;endSize=8;" parent="1" source="Jn_Shfn6a7lbjGQ6scSM-7" target="Jn_Shfn6a7lbjGQ6scSM-6" edge="1">
          <mxGeometry relative="1" as="geometry" />
        </mxCell>
        <mxCell id="Jn_Shfn6a7lbjGQ6scSM-7" value="&lt;div&gt;ln = len(nums)&lt;/div&gt;" style="rounded=1;whiteSpace=wrap;html=1;absoluteArcSize=1;arcSize=14;strokeWidth=1;fontFamily=Lucida Console;fontSize=16;fillColor=#f5f5f5;strokeColor=#666666;fontColor=#333333;" parent="1" vertex="1">
          <mxGeometry x="1734" y="406.5" width="155" height="45" as="geometry" />
        </mxCell>
        <mxCell id="GGL6EGLCVCLj8Pg4lEeM-2" style="edgeStyle=none;rounded=0;orthogonalLoop=1;jettySize=auto;html=1;exitX=1;exitY=0.5;exitDx=0;exitDy=0;entryX=0.5;entryY=1;entryDx=0;entryDy=0;entryPerimeter=0;fontSize=12;startSize=8;endSize=8;" edge="1" parent="1" source="Jn_Shfn6a7lbjGQ6scSM-11" target="Jn_Shfn6a7lbjGQ6scSM-17">
          <mxGeometry relative="1" as="geometry">
            <Array as="points">
              <mxPoint x="2083" y="672" />
            </Array>
          </mxGeometry>
        </mxCell>
        <mxCell id="Jn_Shfn6a7lbjGQ6scSM-11" value="&lt;div&gt;ln = ln - 1&lt;/div&gt;" style="rounded=1;whiteSpace=wrap;html=1;absoluteArcSize=1;arcSize=14;strokeWidth=1;fontFamily=Lucida Console;fontSize=16;fillColor=#f5f5f5;strokeColor=#666666;fontColor=#333333;" parent="1" vertex="1">
          <mxGeometry x="1889" y="649" width="155" height="45" as="geometry" />
        </mxCell>
        <mxCell id="Jn_Shfn6a7lbjGQ6scSM-15" style="edgeStyle=none;curved=1;rounded=0;orthogonalLoop=1;jettySize=auto;html=1;exitX=0.5;exitY=1;exitDx=0;exitDy=0;exitPerimeter=0;fontSize=12;startSize=8;endSize=8;" parent="1" source="Jn_Shfn6a7lbjGQ6scSM-12" target="Jn_Shfn6a7lbjGQ6scSM-13" edge="1">
          <mxGeometry relative="1" as="geometry" />
        </mxCell>
        <mxCell id="Jn_Shfn6a7lbjGQ6scSM-12" value="Start" style="strokeWidth=1;html=1;shape=mxgraph.flowchart.terminator;whiteSpace=wrap;fontSize=16;rounded=1;fillColor=#ffe6cc;strokeColor=#d79b00;" parent="1" vertex="1">
          <mxGeometry x="1741.5" y="124" width="140" height="60" as="geometry" />
        </mxCell>
        <mxCell id="Jn_Shfn6a7lbjGQ6scSM-16" style="edgeStyle=none;curved=1;rounded=0;orthogonalLoop=1;jettySize=auto;html=1;exitX=0.5;exitY=1;exitDx=0;exitDy=0;fontSize=12;startSize=8;endSize=8;" parent="1" source="Jn_Shfn6a7lbjGQ6scSM-13" target="Jn_Shfn6a7lbjGQ6scSM-5" edge="1">
          <mxGeometry relative="1" as="geometry" />
        </mxCell>
        <mxCell id="Jn_Shfn6a7lbjGQ6scSM-13" value="Input&lt;br&gt;nums" style="shape=parallelogram;html=1;strokeWidth=1;perimeter=parallelogramPerimeter;whiteSpace=wrap;rounded=1;arcSize=12;size=0.23;fontFamily=Lucida Console;fontSize=16;fillColor=#f5f5f5;strokeColor=#666666;fontColor=#333333;" parent="1" vertex="1">
          <mxGeometry x="1714" y="224" width="195" height="60" as="geometry" />
        </mxCell>
        <mxCell id="Jn_Shfn6a7lbjGQ6scSM-14" style="edgeStyle=none;curved=1;rounded=0;orthogonalLoop=1;jettySize=auto;html=1;exitX=0.5;exitY=1;exitDx=0;exitDy=0;fontSize=12;startSize=8;endSize=8;" parent="1" source="Jn_Shfn6a7lbjGQ6scSM-3" target="Jn_Shfn6a7lbjGQ6scSM-12" edge="1">
          <mxGeometry relative="1" as="geometry" />
        </mxCell>
        <mxCell id="Jn_Shfn6a7lbjGQ6scSM-21" value="YES" style="edgeStyle=none;curved=1;rounded=0;orthogonalLoop=1;jettySize=auto;html=1;exitX=1;exitY=0.5;exitDx=0;exitDy=0;exitPerimeter=0;fontSize=12;startSize=8;endSize=8;fillColor=#dae8fc;strokeColor=#6c8ebf;fontColor=#301AF0;" parent="1" source="Jn_Shfn6a7lbjGQ6scSM-17" target="Jn_Shfn6a7lbjGQ6scSM-19" edge="1">
          <mxGeometry relative="1" as="geometry" />
        </mxCell>
        <mxCell id="Jn_Shfn6a7lbjGQ6scSM-23" value="NO" style="edgeStyle=none;rounded=0;orthogonalLoop=1;jettySize=auto;html=1;exitX=0.5;exitY=0;exitDx=0;exitDy=0;exitPerimeter=0;entryX=0.5;entryY=0;entryDx=0;entryDy=0;entryPerimeter=0;fontSize=12;startSize=8;endSize=8;fontColor=#F03932;fillColor=#f8cecc;strokeColor=#b85450;" parent="1" source="Jn_Shfn6a7lbjGQ6scSM-17" target="Jn_Shfn6a7lbjGQ6scSM-6" edge="1">
          <mxGeometry x="-0.5723" relative="1" as="geometry">
            <Array as="points">
              <mxPoint x="2083" y="450" />
              <mxPoint x="2000" y="450" />
              <mxPoint x="2000" y="500" />
            </Array>
            <mxPoint as="offset" />
          </mxGeometry>
        </mxCell>
        <mxCell id="Jn_Shfn6a7lbjGQ6scSM-17" value="nums[ln]&amp;gt;val_max" style="strokeWidth=1;html=1;shape=mxgraph.flowchart.decision;whiteSpace=wrap;rounded=1;fontSize=16;fontFamily=Lucida Console;fillColor=#d5e8d4;strokeColor=#82b366;" parent="1" vertex="1">
          <mxGeometry x="1997.75" y="482.75" width="170" height="87.5" as="geometry" />
        </mxCell>
        <mxCell id="Jn_Shfn6a7lbjGQ6scSM-24" style="edgeStyle=none;curved=1;rounded=0;orthogonalLoop=1;jettySize=auto;html=1;exitX=0.5;exitY=0;exitDx=0;exitDy=0;fontSize=12;startSize=8;endSize=8;" parent="1" source="Jn_Shfn6a7lbjGQ6scSM-19" target="Jn_Shfn6a7lbjGQ6scSM-20" edge="1">
          <mxGeometry relative="1" as="geometry" />
        </mxCell>
        <mxCell id="Jn_Shfn6a7lbjGQ6scSM-19" value="&lt;div&gt;val_max = nums[ln]&lt;/div&gt;" style="rounded=1;whiteSpace=wrap;html=1;absoluteArcSize=1;arcSize=14;strokeWidth=1;fontFamily=Lucida Console;fontSize=16;fillColor=#f5f5f5;strokeColor=#666666;fontColor=#333333;" parent="1" vertex="1">
          <mxGeometry x="2231.5" y="505.25" width="190" height="45" as="geometry" />
        </mxCell>
        <mxCell id="Jn_Shfn6a7lbjGQ6scSM-22" style="edgeStyle=none;rounded=0;orthogonalLoop=1;jettySize=auto;html=1;exitX=0.5;exitY=0;exitDx=0;exitDy=0;entryX=0.5;entryY=0;entryDx=0;entryDy=0;entryPerimeter=0;fontSize=12;startSize=8;endSize=8;" parent="1" source="Jn_Shfn6a7lbjGQ6scSM-20" target="Jn_Shfn6a7lbjGQ6scSM-6" edge="1">
          <mxGeometry relative="1" as="geometry">
            <Array as="points">
              <mxPoint x="2327" y="390" />
              <mxPoint x="1940" y="390" />
              <mxPoint x="1940" y="480" />
              <mxPoint x="1830" y="480" />
            </Array>
          </mxGeometry>
        </mxCell>
        <mxCell id="Jn_Shfn6a7lbjGQ6scSM-20" value="&lt;div&gt;ind_max = ind&lt;/div&gt;" style="rounded=1;whiteSpace=wrap;html=1;absoluteArcSize=1;arcSize=14;strokeWidth=1;fontFamily=Lucida Console;fontSize=16;fillColor=#f5f5f5;strokeColor=#666666;fontColor=#333333;" parent="1" vertex="1">
          <mxGeometry x="2249" y="424" width="155" height="45" as="geometry" />
        </mxCell>
        <mxCell id="Jn_Shfn6a7lbjGQ6scSM-29" style="edgeStyle=none;curved=1;rounded=0;orthogonalLoop=1;jettySize=auto;html=1;exitX=0.5;exitY=1;exitDx=0;exitDy=0;fontSize=12;startSize=8;endSize=8;" parent="1" source="Jn_Shfn6a7lbjGQ6scSM-26" target="Jn_Shfn6a7lbjGQ6scSM-28" edge="1">
          <mxGeometry relative="1" as="geometry" />
        </mxCell>
        <mxCell id="Jn_Shfn6a7lbjGQ6scSM-26" value="&lt;div&gt;k = -1&lt;/div&gt;" style="rounded=1;whiteSpace=wrap;html=1;absoluteArcSize=1;arcSize=14;strokeWidth=1;fontFamily=Lucida Console;fontSize=16;fillColor=#f5f5f5;strokeColor=#666666;fontColor=#333333;" parent="1" vertex="1">
          <mxGeometry x="1762.75" y="694" width="97.5" height="45" as="geometry" />
        </mxCell>
        <mxCell id="Jn_Shfn6a7lbjGQ6scSM-31" style="edgeStyle=none;curved=1;rounded=0;orthogonalLoop=1;jettySize=auto;html=1;exitX=0.5;exitY=1;exitDx=0;exitDy=0;fontSize=12;startSize=8;endSize=8;" parent="1" source="Jn_Shfn6a7lbjGQ6scSM-28" target="Jn_Shfn6a7lbjGQ6scSM-30" edge="1">
          <mxGeometry relative="1" as="geometry" />
        </mxCell>
        <mxCell id="Jn_Shfn6a7lbjGQ6scSM-28" value="&lt;div&gt;i = len(nums)&lt;/div&gt;" style="rounded=1;whiteSpace=wrap;html=1;absoluteArcSize=1;arcSize=14;strokeWidth=1;fontFamily=Lucida Console;fontSize=16;fillColor=#f5f5f5;strokeColor=#666666;fontColor=#333333;" parent="1" vertex="1">
          <mxGeometry x="1734" y="794" width="155" height="45" as="geometry" />
        </mxCell>
        <mxCell id="Jn_Shfn6a7lbjGQ6scSM-35" value="YES" style="edgeStyle=none;rounded=0;orthogonalLoop=1;jettySize=auto;html=1;exitX=1;exitY=0.5;exitDx=0;exitDy=0;exitPerimeter=0;fontSize=12;startSize=8;endSize=8;fontColor=#110AF0;fillColor=#dae8fc;strokeColor=#6c8ebf;entryX=0;entryY=0.5;entryDx=0;entryDy=0;entryPerimeter=0;" parent="1" source="Jn_Shfn6a7lbjGQ6scSM-30" target="Jn_Shfn6a7lbjGQ6scSM-32" edge="1">
          <mxGeometry relative="1" as="geometry">
            <Array as="points">
              <mxPoint x="1996" y="914" />
            </Array>
          </mxGeometry>
        </mxCell>
        <mxCell id="Jn_Shfn6a7lbjGQ6scSM-38" value="NO" style="edgeStyle=none;curved=1;rounded=0;orthogonalLoop=1;jettySize=auto;html=1;exitX=0.5;exitY=1;exitDx=0;exitDy=0;exitPerimeter=0;fontSize=12;startSize=8;endSize=8;fontColor=#F03932;fillColor=#f8cecc;strokeColor=#b85450;" parent="1" source="Jn_Shfn6a7lbjGQ6scSM-30" target="Jn_Shfn6a7lbjGQ6scSM-37" edge="1">
          <mxGeometry relative="1" as="geometry" />
        </mxCell>
        <mxCell id="Jn_Shfn6a7lbjGQ6scSM-30" value="i &amp;gt; 0" style="strokeWidth=1;html=1;shape=mxgraph.flowchart.decision;whiteSpace=wrap;rounded=1;fontSize=16;fontFamily=Lucida Console;fillColor=#d5e8d4;strokeColor=#82b366;" parent="1" vertex="1">
          <mxGeometry x="1741.5" y="884" width="140" height="60" as="geometry" />
        </mxCell>
        <mxCell id="Jn_Shfn6a7lbjGQ6scSM-36" value="YES" style="edgeStyle=none;rounded=0;orthogonalLoop=1;jettySize=auto;html=1;exitX=1;exitY=0.5;exitDx=0;exitDy=0;exitPerimeter=0;fontSize=12;startSize=8;endSize=8;fillColor=#dae8fc;strokeColor=#6c8ebf;fontColor=#0038F0;" parent="1" source="Jn_Shfn6a7lbjGQ6scSM-32" target="Jn_Shfn6a7lbjGQ6scSM-33" edge="1">
          <mxGeometry relative="1" as="geometry">
            <Array as="points">
              <mxPoint x="2260" y="990" />
            </Array>
          </mxGeometry>
        </mxCell>
        <mxCell id="Jn_Shfn6a7lbjGQ6scSM-40" value="NO" style="edgeStyle=none;rounded=0;orthogonalLoop=1;jettySize=auto;html=1;exitX=0.5;exitY=0;exitDx=0;exitDy=0;exitPerimeter=0;entryX=0.5;entryY=0;entryDx=0;entryDy=0;entryPerimeter=0;fontSize=12;startSize=8;endSize=8;fillColor=#f8cecc;strokeColor=#b85450;fontColor=#F02B2B;" parent="1" source="Jn_Shfn6a7lbjGQ6scSM-32" target="Jn_Shfn6a7lbjGQ6scSM-30" edge="1">
          <mxGeometry x="-0.1556" y="12" relative="1" as="geometry">
            <Array as="points">
              <mxPoint x="2082" y="884" />
            </Array>
            <mxPoint as="offset" />
          </mxGeometry>
        </mxCell>
        <mxCell id="Jn_Shfn6a7lbjGQ6scSM-32" value="i != ind_max+1" style="strokeWidth=1;html=1;shape=mxgraph.flowchart.decision;whiteSpace=wrap;rounded=1;fontSize=16;fontFamily=Lucida Console;fillColor=#d5e8d4;strokeColor=#82b366;" parent="1" vertex="1">
          <mxGeometry x="1995.75" y="960" width="172" height="60" as="geometry" />
        </mxCell>
        <mxCell id="Jn_Shfn6a7lbjGQ6scSM-39" style="edgeStyle=none;curved=1;rounded=0;orthogonalLoop=1;jettySize=auto;html=1;exitX=0.5;exitY=0;exitDx=0;exitDy=0;fontSize=12;startSize=8;endSize=8;" parent="1" source="Jn_Shfn6a7lbjGQ6scSM-33" target="Jn_Shfn6a7lbjGQ6scSM-34" edge="1">
          <mxGeometry relative="1" as="geometry" />
        </mxCell>
        <mxCell id="Jn_Shfn6a7lbjGQ6scSM-33" value="&lt;div&gt;k += 1&lt;/div&gt;" style="rounded=1;whiteSpace=wrap;html=1;absoluteArcSize=1;arcSize=14;strokeWidth=1;fontFamily=Lucida Console;fontSize=16;fillColor=#f5f5f5;strokeColor=#666666;fontColor=#333333;" parent="1" vertex="1">
          <mxGeometry x="2214" y="891.5" width="90" height="45" as="geometry" />
        </mxCell>
        <mxCell id="Jn_Shfn6a7lbjGQ6scSM-43" style="edgeStyle=none;curved=1;rounded=0;orthogonalLoop=1;jettySize=auto;html=1;exitX=0.5;exitY=0;exitDx=0;exitDy=0;fontSize=12;startSize=8;endSize=8;" parent="1" source="Jn_Shfn6a7lbjGQ6scSM-34" target="Jn_Shfn6a7lbjGQ6scSM-41" edge="1">
          <mxGeometry relative="1" as="geometry" />
        </mxCell>
        <mxCell id="Jn_Shfn6a7lbjGQ6scSM-34" value="&lt;div&gt;nums[k] = nums[i]&lt;/div&gt;" style="rounded=1;whiteSpace=wrap;html=1;absoluteArcSize=1;arcSize=14;strokeWidth=1;fontFamily=Lucida Console;fontSize=16;fillColor=#f5f5f5;strokeColor=#666666;fontColor=#333333;" parent="1" vertex="1">
          <mxGeometry x="2167.75" y="794" width="182.5" height="45" as="geometry" />
        </mxCell>
        <mxCell id="Jn_Shfn6a7lbjGQ6scSM-45" style="edgeStyle=none;curved=1;rounded=0;orthogonalLoop=1;jettySize=auto;html=1;exitX=0.5;exitY=1;exitDx=0;exitDy=0;fontSize=12;startSize=8;endSize=8;" parent="1" source="Jn_Shfn6a7lbjGQ6scSM-37" target="Jn_Shfn6a7lbjGQ6scSM-44" edge="1">
          <mxGeometry relative="1" as="geometry" />
        </mxCell>
        <mxCell id="Jn_Shfn6a7lbjGQ6scSM-37" value="&lt;div&gt;del nums[-1]&lt;/div&gt;" style="rounded=1;whiteSpace=wrap;html=1;absoluteArcSize=1;arcSize=14;strokeWidth=1;fontFamily=Lucida Console;fontSize=16;fillColor=#f5f5f5;strokeColor=#666666;fontColor=#333333;" parent="1" vertex="1">
          <mxGeometry x="1734" y="1004" width="155" height="45" as="geometry" />
        </mxCell>
        <mxCell id="GGL6EGLCVCLj8Pg4lEeM-1" style="edgeStyle=none;rounded=0;orthogonalLoop=1;jettySize=auto;html=1;exitX=0;exitY=0.5;exitDx=0;exitDy=0;fontSize=12;startSize=8;endSize=8;entryX=0.5;entryY=0;entryDx=0;entryDy=0;entryPerimeter=0;" edge="1" parent="1" source="Jn_Shfn6a7lbjGQ6scSM-41" target="Jn_Shfn6a7lbjGQ6scSM-30">
          <mxGeometry relative="1" as="geometry">
            <mxPoint x="1810" y="880" as="targetPoint" />
            <Array as="points">
              <mxPoint x="2140" y="737" />
              <mxPoint x="2140" y="850" />
              <mxPoint x="1870" y="850" />
              <mxPoint x="1830" y="850" />
            </Array>
          </mxGeometry>
        </mxCell>
        <mxCell id="Jn_Shfn6a7lbjGQ6scSM-41" value="&lt;div&gt;i = i -1&lt;/div&gt;" style="rounded=1;whiteSpace=wrap;html=1;absoluteArcSize=1;arcSize=14;strokeWidth=1;fontFamily=Lucida Console;fontSize=16;fillColor=#f5f5f5;strokeColor=#666666;fontColor=#333333;" parent="1" vertex="1">
          <mxGeometry x="2214" y="714" width="90" height="45" as="geometry" />
        </mxCell>
        <mxCell id="Jn_Shfn6a7lbjGQ6scSM-44" value="END" style="strokeWidth=1;html=1;shape=mxgraph.flowchart.terminator;whiteSpace=wrap;fontSize=16;rounded=1;fillColor=#ffe6cc;strokeColor=#d79b00;" parent="1" vertex="1">
          <mxGeometry x="1741.5" y="1084" width="140" height="60" as="geometry" />
        </mxCell>
      </root>
    </mxGraphModel>
  </diagram>
</mxfile>
